C:/Program Files/Krita (x64)/bin/ffmpeg.exe -hide_banner -y -y -r 12 -start_number 0 -start_number_range 1 -i C:/Users/LB908-8/Desktop/GOON_1/Right_Idle/R_Idle_%04d.png -i C:/Users/LB908-8/Desktop/GOON_1/Right_Idle/KritaTempPalettegen_%06d.png -lavfi [0:v][1:v]paletteuse=dither=sierra2_4a:diff_mode=none -f gif -loop 0 -gifflags +transdiff C:/Users/LB908-8/Desktop/GOON_1/Right_Idle/Goon_1_IDLE.gif
=====================================================
Input #0, image2, from 'C:/Users/LB908-8/Desktop/GOON_1/Right_Idle/R_Idle_%04d.png':
  Duration: 00:00:00.96, start: 0.000000, bitrate: N/A
  Stream #0:0: Video: png, rgba(pc, gbr/unknown/unknown), 1424x2160 [SAR 9448:9448 DAR 89:135], 25 fps, 25 tbr, 25 tbn
Input #1, image2, from 'C:/Users/LB908-8/Desktop/GOON_1/Right_Idle/KritaTempPalettegen_%06d.png':
  Duration: 00:00:00.04, start: 0.000000, bitrate: N/A
  Stream #1:0: Video: png, rgba(pc, gbr/unknown/unknown), 16x16 [SAR 1:1 DAR 1:1], 25 fps, 25 tbr, 25 tbn
Stream mapping:
  Stream #0:0 (png) -> paletteuse
  Stream #1:0 (png) -> paletteuse
  paletteuse:default -> Stream #0:0 (gif)
Press [q] to stop, [?] for help
Output #0, gif, to 'C:/Users/LB908-8/Desktop/GOON_1/Right_Idle/Goon_1_IDLE.gif':
  Metadata:
    encoder         : Lavf61.7.100
  Stream #0:0: Video: gif, pal8(pc, gbr/unknown/unknown, progressive), 1424x2160 [SAR 1:1 DAR 89:135], q=2-31, 200 kb/s, 12 fps, 100 tbn
      Metadata:
        encoder         : Lavc61.19.101 gif
frame=   16 fps=0.0 q=-0.0 size=     768KiB time=00:00:01.33 bitrate=4718.6kbits/s speed=2.63x    [out#0/gif @ 0000024d7c085880] video:1537KiB audio:0KiB subtitle:0KiB other streams:0KiB global headers:0KiB muxing overhead: 0.001271%
frame=   24 fps=0.0 q=-0.0 Lsize=    1537KiB time=00:00:02.00 bitrate=6295.4kbits/s speed=2.82x    
